HIERARCHY
ROOT Hips
{
	OFFSET 54.108299 -36.457817 94.234489
	CHANNELS 6 Xposition Yposition Zposition Xrotation Yrotation Zrotation
	JOINT spine
	{
		OFFSET 0.000000 -0.448574 7.800591
		CHANNELS 3 Xrotation Yrotation Zrotation
		JOINT spine1
		{
			OFFSET 0.000000 -0.000004 10.136398
			CHANNELS 3 Xrotation Yrotation Zrotation
			JOINT spine2
			{
				OFFSET 0.000000 0.000000 9.712509
				CHANNELS 3 Xrotation Yrotation Zrotation
				JOINT Neck
				{
					OFFSET 0.000000 -1.188873 24.936111
					CHANNELS 3 Xrotation Yrotation Zrotation
					JOINT Head
					{
						OFFSET 0.000000 -0.000004 7.533844
						CHANNELS 3 Xrotation Yrotation Zrotation
						End Site
						{
							OFFSET 0.000000 6.014019 18.236099
						}
					}
				}
				JOINT RightShoulder
				{
					OFFSET -4.089649 0.569454 10.488815
					CHANNELS 3 Xrotation Yrotation Zrotation
					JOINT RightArm
					{
						OFFSET 0.000000 0.000000 13.757004
						CHANNELS 3 Xrotation Yrotation Zrotation
						JOINT RightArmRoll
						{
							OFFSET 0.000000 -0.000004 6.944778
							CHANNELS 3 Xrotation Yrotation Zrotation
							JOINT RightForeArm
							{
								OFFSET 0.000000 0.000000 20.227692
								CHANNELS 3 Xrotation Yrotation Zrotation
								JOINT RightForeArmRoll
								{
									OFFSET 0.000000 -0.000004 7.793121
									CHANNELS 3 Xrotation Yrotation Zrotation
									JOINT RightHand
									{
										OFFSET 0.000000 0.000000 15.639099
										CHANNELS 3 Xrotation Yrotation Zrotation
										End Site
										{
											OFFSET 0.000000 0.000000 0.100006
										}
									}
								}
							}
						}
					}
				}
				JOINT LeftShoulder
				{
					OFFSET 4.089649 0.569454 10.488815
					CHANNELS 3 Xrotation Yrotation Zrotation
					JOINT LeftArm
					{
						OFFSET 0.000000 0.000000 13.757004
						CHANNELS 3 Xrotation Yrotation Zrotation
						JOINT LeftArmRoll
						{
							OFFSET 0.000000 -0.000004 6.944778
							CHANNELS 3 Xrotation Yrotation Zrotation
							JOINT LeftForeArm
							{
								OFFSET 0.000000 0.000000 20.227692
								CHANNELS 3 Xrotation Yrotation Zrotation
								JOINT LeftForeArmRoll
								{
									OFFSET 0.000000 -0.000004 7.793121
									CHANNELS 3 Xrotation Yrotation Zrotation
									JOINT LeftHand
									{
										OFFSET 0.000000 0.000000 15.639099
										CHANNELS 3 Xrotation Yrotation Zrotation
										End Site
										{
											OFFSET 0.000000 0.000000 0.100006
										}
									}
								}
							}
						}
					}
				}
			}
		}
	}
	JOINT RightUpLeg
	{
		OFFSET -6.914162 1.063580 -1.267883
		CHANNELS 3 Xrotation Yrotation Zrotation
		JOINT RightUpLegRoll
		{
			OFFSET 0.000000 -0.000004 18.337799
			CHANNELS 3 Xrotation Yrotation Zrotation
			JOINT RightLeg
			{
				OFFSET 0.000000 0.000004 -22.708496
				CHANNELS 3 Xrotation Yrotation Zrotation
				JOINT RightLegRoll
				{
					OFFSET 0.000000 -0.000004 22.782799
					CHANNELS 3 Xrotation Yrotation Zrotation
					JOINT RightFoot
					{
						OFFSET 0.000000 -0.000004 18.962906
						CHANNELS 3 Xrotation Yrotation Zrotation
						JOINT RightToeBase
						{
							OFFSET 0.000000 0.000000 15.852005
							CHANNELS 3 Xrotation Yrotation Zrotation
							End Site
							{
								OFFSET 0.006718 0.884888 7.677002
							}
						}
					}
				}
			}
		}
	}
	JOINT LeftUpLeg
	{
		OFFSET 6.914162 1.063580 -1.267883
		CHANNELS 3 Xrotation Yrotation Zrotation
		JOINT LeftUpLegRoll
		{
			OFFSET 0.000000 -0.000004 18.337898
			CHANNELS 3 Xrotation Yrotation Zrotation
			JOINT LeftLeg
			{
				OFFSET 0.000000 -0.000004 22.708405
				CHANNELS 3 Xrotation Yrotation Zrotation
				JOINT LeftLegRoll
				{
					OFFSET 0.000000 -0.000004 22.993408
					CHANNELS 3 Xrotation Yrotation Zrotation
					JOINT LeftFoot
					{
						OFFSET 0.000000 -0.000004 18.752197
						CHANNELS 3 Xrotation Yrotation Zrotation
						JOINT LeftToeBase
						{
							OFFSET 0.000000 0.000000 15.852005
							CHANNELS 3 Xrotation Yrotation Zrotation
							End Site
							{
								OFFSET -0.030113 0.884888 7.677002
							}
						}
					}
				}
			}
		}
	}
}
MOTION
Frames: 10
Frame Time: 0.041667
49.555107 -4.054424 54.260586 -36.076649 -1.388182 17.229188 5.312439 -1.157249 -2.140338 14.587047 -2.531052 -4.173074 16.231113 -2.580586 -4.142699 17.522401 19.718082 -1.079156 -2.868758 -16.772438 0.155287 -10.923283 -63.941704 -13.157060 -45.524054 -129.015839 -78.865278 -0.000005 0.000004 -0.000010 56.885357 -12.738689 6.406169 0.000016 0.000003 -3.000001 -4.999726 -7.998731 -0.000020 -6.754120 72.208644 8.980133 -58.893245 109.265835 81.063786 0.000000 -0.000003 0.000002 63.807614 9.068919 -0.614652 0.000019 0.000000 2.999981 -5.000406 7.998942 -0.000141 -48.975694 -176.245669 8.178733 -179.999991 0.000005 -1.348998 77.220876 4.161759 1.904351 -0.000006 -0.000003 1.800090 81.640561 5.041187 7.902443 25.456957 -7.355614 -0.000002 -55.369653 171.803518 -3.883837 -0.000020 -0.000005 -2.552201 -102.712330 -6.933848 -6.689330 -0.000006 0.000002 -3.237168 78.220091 -8.200471 3.082286 26.792827 7.353682 -0.162953 
49.553802 -4.056213 54.258690 -36.073026 -1.387347 17.228631 5.314162 -1.158192 -2.141496 14.590474 -2.532833 -4.173448 16.234444 -2.582349 -4.143044 17.588719 19.765797 -1.089460 -2.900207 -16.803170 0.153969 -10.887868 -63.898175 -13.114064 -45.463109 -129.043584 -78.785529 -0.000006 0.000005 -0.000007 56.892327 -12.736027 6.400520 0.000016 0.000006 -3.000000 -4.999724 -7.998728 -0.000019 -6.739273 72.225740 8.965075 -58.930811 109.260296 81.097104 0.000001 -0.000003 0.000000 63.818071 9.064444 -0.612370 0.000018 -0.000003 2.999978 -5.000405 7.998939 -0.000142 -48.981090 -176.244753 8.177265 -179.999991 0.000005 -1.348998 77.218526 4.161656 1.905528 -0.000008 -0.000003 1.800121 81.640643 5.040729 7.904102 25.456957 -7.355615 -0.000002 -55.374365 171.802712 -3.883029 -0.000020 -0.000007 -2.552200 -102.714509 -6.934445 -6.690527 -0.000005 0.000002 -3.237168 78.222612 -8.200025 3.080213 26.791516 7.353685 -0.162954 
49.561703 -4.056744 54.259590 -36.069515 -1.386472 17.228099 5.315842 -1.159164 -2.142794 14.593696 -2.534663 -4.174052 16.237672 -2.584159 -4.143619 17.654782 19.814449 -1.099688 -2.931146 -16.833995 0.152862 -10.851933 -63.853376 -13.070423 -45.400001 -129.072544 -78.703232 -0.000005 0.000006 -0.000008 56.898782 -12.733715 6.394996 0.000015 0.000002 -3.000002 -4.999728 -7.998728 -0.000019 -6.725333 72.243123 8.951026 -58.969722 109.253657 81.131965 -0.000000 -0.000004 0.000002 63.829026 9.059856 -0.610059 0.000020 0.000000 2.999979 -5.000405 7.998940 -0.000143 -48.986035 -176.244466 8.176092 -179.999991 0.000005 -1.348998 77.216409 4.161599 1.906599 -0.000005 -0.000003 1.800121 81.640554 5.040207 7.905972 25.456957 -7.355613 -0.000002 -55.378559 171.802385 -3.882597 -0.000019 -0.000005 -2.552211 -102.716674 -6.935311 -6.689743 -0.000004 0.000003 -3.237170 78.225207 -8.199558 3.077951 26.790102 7.353692 -0.162947 
49.560303 -4.052898 54.258900 -36.066298 -1.385559 17.227682 5.317509 -1.160157 -2.144197 14.596922 -2.536543 -4.174820 16.240902 -2.586018 -4.144349 17.720451 19.863864 -1.109849 -2.961724 -16.864826 0.151900 -10.815698 -63.807586 -13.026366 -45.335862 -129.102146 -78.619815 -0.000005 0.000004 -0.000009 56.904960 -12.731552 6.389396 0.000018 0.000006 -3.000001 -4.999726 -7.998729 -0.000019 -6.712011 72.260663 8.937674 -59.005526 109.247202 81.163438 0.000002 -0.000002 0.000001 63.840282 9.055225 -0.607683 0.000020 0.000001 2.999979 -5.000405 7.998935 -0.000142 -48.990925 -176.243524 8.173969 -179.999991 0.000006 -1.349996 77.214394 4.161582 1.907672 -0.000009 -0.000002 1.800100 81.640418 5.039582 7.908131 25.456957 -7.355614 -0.000002 -55.382667 171.801442 -3.881272 -0.000020 -0.000006 -2.552211 -102.718634 -6.936350 -6.689980 -0.000004 0.000002 -3.237169 78.227891 -8.198997 3.075500 26.788682 7.353690 -0.162953 
49.560307 -4.052567 54.261002 -36.063074 -1.384635 17.227173 5.319154 -1.161159 -2.145650 14.600146 -2.538451 -4.175659 16.244123 -2.587906 -4.145163 17.786106 19.913516 -1.120027 -2.992097 -16.895854 0.151005 -10.779374 -63.761298 -12.982164 -45.270699 -129.132376 -78.535298 -0.000007 0.000004 -0.000010 56.910861 -12.729549 6.383818 0.000015 0.000005 -2.999999 -4.999724 -7.998725 -0.000019 -6.699001 72.278209 8.924656 -59.043188 109.239908 81.196927 0.000001 -0.000003 0.000000 63.851832 9.050504 -0.605247 0.000020 0.000002 2.999978 -5.000405 7.998942 -0.000141 -48.995628 -176.242540 8.171748 -179.999991 0.000005 -1.349996 77.212591 4.161524 1.908830 -0.000006 -0.000003 1.800070 81.640158 5.038957 7.910398 25.456957 -7.355615 -0.000002 -55.386574 171.801060 -3.880583 -0.000020 -0.000005 -2.552221 -102.720704 -6.937169 -6.690201 -0.000004 0.000002 -3.237169 78.230583 -8.198464 3.073150 26.787269 7.353688 -0.162947 
49.562904 -4.050728 54.264709 -36.059960 -1.383704 17.226664 5.320799 -1.162163 -2.147125 14.603373 -2.540360 -4.176533 16.247353 -2.589793 -4.146006 17.851837 19.963294 -1.130348 -3.022433 -16.926875 0.150096 -10.743088 -63.714894 -12.938002 -45.204753 -129.163358 -78.449756 -0.000004 0.000006 -0.000006 56.916888 -12.727561 6.378440 0.000018 0.000001 -3.000001 -4.999722 -7.998728 -0.000019 -6.686070 72.295845 8.911724 -59.080863 109.232620 81.230340 -0.000001 -0.000002 0.000002 63.863389 9.045825 -0.602904 0.000019 0.000002 2.999980 -5.000408 7.998941 -0.000142 -49.000272 -176.242240 8.170195 -179.999991 0.000005 -1.349996 77.210699 4.161519 1.909899 -0.000006 -0.000003 1.800030 81.639899 5.038328 7.912663 25.456957 -7.355614 -0.000002 -55.390468 171.800677 -3.879899 -0.000020 -0.000005 -2.552222 -102.722739 -6.938257 -6.689448 -0.000004 0.000002 -3.237170 78.233253 -8.197905 3.070603 26.785857 7.353690 -0.162951 
49.552608 -4.055420 54.253605 -36.056743 -1.382783 17.226155 5.322454 -1.163165 -2.148576 14.606494 -2.542259 -4.177360 16.250582 -2.591671 -4.146800 17.917615 20.012924 -1.140816 -3.052877 -16.957784 0.149104 -10.707055 -63.668688 -12.894116 -45.139778 -129.193711 -78.365438 -0.000004 0.000007 -0.000005 56.922882 -12.725520 6.372881 0.000016 0.000003 -3.000001 -4.999726 -7.998731 -0.000019 -6.672935 72.313378 8.898573 -59.118921 109.225503 81.264211 -0.000000 -0.000003 -0.000000 63.874939 9.041103 -0.600468 0.000020 -0.000000 2.999982 -5.000407 7.998942 -0.000141 -49.004961 -176.241284 8.167982 -179.999991 0.000006 -1.351007 77.208786 4.161492 1.911068 -0.000007 -0.000002 1.799999 81.639728 5.037651 7.915024 25.456957 -7.355615 -0.000002 -55.394490 171.799707 -3.878379 -0.000020 -0.000003 -2.552230 -102.724823 -6.939067 -6.690680 -0.000004 0.000002 -3.237172 78.235951 -8.197372 3.068149 26.784442 7.353698 -0.162957 
49.516899 -4.012001 54.315689 -36.053423 -1.381887 17.225630 5.324120 -1.164157 -2.149938 14.609822 -2.544127 -4.178075 16.253810 -2.593521 -4.147483 17.983613 20.062089 -1.151501 -3.083600 -16.988689 0.147957 -10.671486 -63.623246 -12.850788 -45.077042 -129.222890 -78.283701 -0.000004 0.000006 -0.000009 56.929166 -12.723322 6.367300 0.000016 0.000004 -3.000000 -4.999727 -7.998730 -0.000019 -6.659293 72.330836 8.884859 -59.154855 109.219082 81.295889 0.000001 -0.000002 0.000001 63.886099 9.036500 -0.598171 0.000020 0.000001 2.999981 -5.000405 7.998939 -0.000143 -49.009821 -176.240983 8.166704 -179.999991 0.000006 -1.351006 77.206778 4.161452 1.912136 -0.000007 -0.000003 1.799990 81.639530 5.037125 7.916994 25.456957 -7.355614 -0.000002 -55.398582 171.799379 -3.877870 -0.000020 -0.000004 -2.552240 -102.726892 -6.939884 -6.690897 -0.000005 0.000002 -3.237171 78.238622 -8.196816 3.065804 26.783122 7.353686 -0.162961 
49.525105 -4.018692 54.305801 -36.049906 -1.381024 17.225081 5.325808 -1.165119 -2.151194 14.613046 -2.545947 -4.178611 16.257042 -2.595321 -4.147991 18.050011 20.110491 -1.162496 -3.114765 -17.019484 0.146567 -10.636440 -63.578672 -12.808104 -45.014621 -129.252246 -78.202230 -0.000006 0.000004 -0.000010 56.935788 -12.720895 6.361733 0.000016 0.000003 -3.000000 -4.999724 -7.998733 -0.000020 -6.644928 72.348116 8.870346 -59.194395 109.212751 81.331372 0.000000 -0.000003 0.000001 63.896850 9.031936 -0.595732 0.000020 0.000001 2.999978 -5.000404 7.998941 -0.000141 -49.015015 -176.240054 8.164963 -179.999991 0.000005 -1.351007 77.204545 4.161380 1.913311 -0.000005 -0.000002 1.800000 81.639550 5.036588 7.918847 25.456955 -7.355614 -0.000002 -55.402997 171.798491 -3.876794 -0.000020 -0.000006 -2.552240 -102.729050 -6.940753 -6.690114 -0.000006 0.000002 -3.237170 78.241231 -8.196333 3.063641 26.781713 7.353690 -0.162946 
49.554302 -4.054947 54.253685 -36.046091 -1.380210 17.224516 5.327542 -1.166051 -2.152291 14.616467 -2.547697 -4.178891 16.260464 -2.597052 -4.148247 18.116979 20.157808 -1.173865 -3.146517 -17.050153 0.144864 -10.602190 -63.535663 -12.766419 -44.955397 -129.279772 -78.124400 -0.000004 0.000006 -0.000009 56.942857 -12.718196 6.356100 0.000016 0.000005 -3.000001 -4.999727 -7.998728 -0.000020 -6.629543 72.365219 8.854702 -59.232650 109.207526 81.365448 0.000000 -0.000003 0.000000 63.907116 9.027522 -0.593513 0.000021 0.000002 2.999980 -5.000407 7.998940 -0.000144 -49.020507 -176.239153 8.163599 -179.999991 0.000004 -1.352003 77.202188 4.161251 1.914282 -0.000008 -0.000003 1.800041 81.639653 5.036161 7.920420 25.456957 -7.355614 -0.000002 -55.407686 171.798273 -3.876899 -0.000020 -0.000005 -2.552240 -102.731127 -6.941573 -6.689343 -0.000004 0.000002 -3.237168 78.243765 -8.195906 3.061670 26.780403 7.353689 -0.162949 
